<svg xmlns="http://www.w3.org/2000/svg" xmlns:xlink="http://www.w3.org/1999/xlink" version="1.1" id="Layer_1" x="0px" y="0px" viewBox="0 0 1653.482 1653.449" enable-background="new 0 0 1653.482 1653.449" xml:space="preserve">
  <g>
  	<path fill="#9913E6" d="M1325.624,201.33C1141.082,53.138,897.029-7.668,648.863,46.621   C430.05,94.852,222.588,243.614,105.886,479.435c-108.469,228.582-103.522,476.421,0,694.578   c117.631,237.699,326.228,385.067,542.977,432.814c249.268,54.543,493.096-7.223,676.76-154.709   c186.4-150.184,298.359-368.107,301.134-625.394C1623.983,569.438,1512.026,351.519,1325.624,201.33z M1288.083,1405.104   c-168.204,135.187-393.405,193.857-625.885,143.057c-201.351-44.246-393.316-180.633-502.125-400.29   c-96.451-197.281-98.2-441.403,0-642.295c108.038-218.089,298.961-355.638,502.125-400.289   c233.913-51.11,458.832,8.78,625.885,143.057c173.987,140.168,275.86,342.149,278.511,578.38   C1563.943,1062.966,1462.066,1264.941,1288.083,1405.104z"/>
  	<path fill="#4914A0" d="M1290.618,245.17c-172.319-138.507-399.546-194.055-629.32-143.844   c-203.906,44.813-396.099,182.881-504.884,402.486c-97.683,199.808-98.107,445.118,0,645.825   c109.432,220.91,302.393,358.006,504.884,402.486c232.022,50.707,458.743-6.753,629.32-143.844   c176.436-142.151,277.393-345.996,280.039-581.555C1568.004,590.508,1466.573,386.925,1290.618,245.17z M1253.078,1361.265   c-155.044,124.73-363.175,179.18-578.445,132.191c-185.145-40.55-362.992-166.236-464.032-369.96   c-89.95-183.848-89.918-409.79,0-593.542c100.29-202.212,277.143-329.028,464.032-369.961   c216.899-47.328,424.682,8.491,578.445,132.191c157.801,127.115,254.804,312.109,257.416,534.541   C1507.881,1049.215,1410.858,1234.159,1253.078,1361.265z"/>
  	<path fill="#1D3DDD" d="M1255.613,289.009c-157.538-126.684-367.138-179.84-581.88-132.978   c-186.707,40.912-365.374,167.648-466.79,372.157c-90.504,184.988-90.441,412.244,0,597.072   c101.197,204.067,279.549,331.157,466.79,372.157c216.304,47.22,425.506-7.292,581.88-132.978   c159.443-128.456,256.341-314.84,258.943-537.715C1511.954,603.877,1415.028,417.427,1255.613,289.009z M1218.072,1317.426   c-142,114.318-332.942,164.486-531.004,121.325c-170.278-37.148-333.294-153.073-425.939-339.632   c-82.486-168.382-82.532-376.314,0-544.788c92.615-186.505,255.519-302.453,425.939-339.632   c199.521-43.47,390.167,7.943,531.004,121.325c142.726,114.942,233.762,283.653,236.321,490.701   C1451.836,1033.635,1360.924,1202.379,1218.072,1317.426z"/>
  	<path fill="#019A4A" d="M1220.607,332.849c-143.228-115.302-335.46-165.47-534.44-122.112   C514.674,248.163,350.65,364.903,257.47,552.565c-83.16,169.767-82.925,379.033,0,548.319   c93.365,188.043,257.562,304.495,428.697,341.828c197.021,42.923,389.59-5.504,534.44-122.112   c144.318-116.234,235.3-286.343,237.848-493.876C1455.905,619.023,1364.806,448.991,1220.607,332.849z M1183.066,1273.586   c-128.662,103.668-302.347,149.87-483.564,110.459c-154.457-33.481-303.202-139.11-387.845-309.303   c-75.799-154.531-74.297-344.566,0-496.035c84.74-170.379,233.41-275.769,387.845-309.303   c178.736-38.872,352.834,5.141,483.564,110.459c130.945,105.454,212.787,259.258,215.225,446.862   C1395.849,1014.647,1313.793,1168.316,1183.066,1273.586z"/>
  	<path fill="#FDE000" d="M1185.601,376.688c-131.778-106.207-307.29-150.335-486.999-111.246   c-154.422,33.544-304.829,139.02-390.604,311.499c-75.64,154.217-75.599,345.431,0,499.566   c85.258,171.43,234.798,277.611,390.604,311.499c181.445,39.45,356.568-6.108,486.999-111.246   c134.376-108.219,214.339-264.295,216.753-450.036C1399.93,640.175,1319.342,484.396,1185.601,376.688z M1148.061,1229.747   c-117.087,94.458-273.956,134.774-436.124,99.593c-138.94-30.008-273.141-125.238-349.752-278.974   c-67.537-137.505-67.785-309.242,0-447.282c76.82-154.157,211.196-249.063,349.752-278.974   c163.145-35.397,319.846,5.773,436.124,99.593c118.802,95.654,191.773,234.328,194.131,403.022   C1339.824,996.124,1266.308,1134.535,1148.061,1229.747z"/>
  	<path fill="#FF5A00" d="M1150.596,420.528c-119.442-96.367-277.955-135.451-439.559-100.38   c-139.464,30.109-275.089,125.776-352.51,281.171c-68.702,139.825-67.627,313.146,0,450.813   c77.281,155.113,212.583,250.961,352.51,281.17c162.828,35.333,321.042-4.775,439.559-100.38   c120.824-97.276,193.338-237.655,195.658-406.197C1343.929,657.903,1271.198,517.621,1150.596,420.528z M1113.055,1185.907   c-104.091,84.132-243.878,120.045-388.684,88.727c-122.448-26.257-242.709-110.622-311.659-248.646   c-60.359-122.684-60.109-276.384,0-398.529c68.731-137.585,188.577-222.267,311.659-248.646   c145.729-31.53,285.366,5.205,388.684,88.727c104.427,84.061,170.754,206.723,173.035,359.183   C1283.811,979.108,1217.557,1101.789,1113.055,1185.907z"/>
  	<path fill="#D10E1C" d="M1115.59,464.367c-104.798-84.662-245.744-121.194-392.119-89.514   c-123.974,26.574-245.078,112.005-314.417,250.842c-60.852,123.699-60.694,278.712,0,402.059   c69.325,138.808,190.262,224.229,314.417,250.842c147.601,31.932,288.245-5.614,392.119-89.514   c107.937-86.885,172.314-211.859,174.563-362.357C1287.9,675.953,1223.316,551.087,1115.59,464.367z M1078.049,1142.068   c-90.506,73.28-213.005,105.505-341.243,77.862c-106.706-22.642-212.619-96.681-273.565-218.317   c-53.089-107.614-52.503-243.35,0-349.776c61.123-121.998,167.085-195.722,273.565-218.317   c128.945-27.8,251.294,5.033,341.243,77.862c92.103,74.123,149.755,181.594,151.94,315.343   C1227.811,960.06,1170.477,1067.691,1078.049,1142.068z"/>
  </g>
</svg>
